<svg width="24" height="14" viewBox="0 0 24 14" fill="none" xmlns="http://www.w3.org/2000/svg">
<g clip-path="url(#clip0_230_3015)">
<path d="M0 7.18443V6.8169C0.158766 6.41753 0.474458 6.07282 0.750919 5.73891C5.75235 -0.291802 13.5405 -2.05682 20.1455 2.80463C21.282 3.64119 23.0186 5.24286 23.7781 6.40792C24.1588 6.99286 24.0092 7.27091 23.6371 7.77658C22.7495 8.98308 21.3586 10.3025 20.1461 11.1967C13.5582 16.0557 5.73519 14.2919 0.751532 8.26182C0.474459 7.92671 0.171639 7.5802 0.000612995 7.18383L0 7.18443ZM17.0358 6.99946C17.0358 4.27237 14.7793 2.06115 11.9951 2.06115C9.21087 2.06115 6.95443 4.27177 6.95443 6.99946C6.95443 9.72716 9.21087 11.9378 11.9951 11.9378C14.7793 11.9378 17.0358 9.72716 17.0358 6.99946Z" fill="#6C6C6C"/>
<path d="M11.9999 9.6568C13.4986 9.6568 14.7136 8.46649 14.7136 6.99817C14.7136 5.52985 13.4986 4.33954 11.9999 4.33954C10.5011 4.33954 9.28613 5.52985 9.28613 6.99817C9.28613 8.46649 10.5011 9.6568 11.9999 9.6568Z" fill="#6C6C6C"/>
</g>
<defs>
<clipPath id="clip0_230_3015">
<rect width="24" height="14" fill="white"/>
</clipPath>
</defs>
</svg>
