<svg width="24" height="21" viewBox="0 0 24 21" fill="none" xmlns="http://www.w3.org/2000/svg">
<g clip-path="url(#clip0_230_3018)">
<path d="M2.62057 0L21.9782 19.4989L20.495 21L16.7282 17.3131C10.174 19.9406 2.50847 16.5518 0 9.9413C0.81064 7.77277 2.24737 5.91619 4.01971 4.46475L1.10523 1.52046L2.62057 0ZM14.9695 15.598C14.9921 15.509 14.9326 15.4945 14.8929 15.4427C14.8116 15.3357 14.0242 14.5372 13.9613 14.5206C9.83431 16.1805 5.77974 12.116 7.47552 7.95083L5.6075 6.06389C5.5412 6.03352 4.89528 6.58773 4.78729 6.68505C4.06755 7.33658 3.31843 8.25451 2.8222 9.09239C2.72241 9.2601 2.44286 9.70802 2.40458 9.86331C2.37656 9.9765 2.39979 9.99445 2.43944 10.0897C2.59801 10.4686 2.97121 11.0297 3.21112 11.3776C5.39014 14.5365 9.17609 16.3247 12.9989 15.959C13.6626 15.8955 14.3195 15.7374 14.9688 15.5973L14.9695 15.598ZM9.29092 9.81224C9.19318 11.3713 10.5014 12.7434 12.0537 12.6799L9.29092 9.81224Z" fill="#6C6C6C"/>
<path d="M8.06258 2.26999C8.58819 2.13333 9.11176 1.97804 9.64763 1.88073C15.7725 0.770235 21.7115 4.12173 24.0006 9.91231C23.2911 11.8296 22.0581 13.5972 20.5202 14.9175L19.0151 13.3956L19.0595 13.2969C20.1381 12.3942 21.0075 11.2133 21.6172 9.9413C19.5783 5.55661 14.5504 3.03125 9.83354 4.1169C9.34484 3.55648 8.57931 3.00227 8.13913 2.42459C8.09948 2.37283 8.04002 2.35902 8.06258 2.2693V2.26999Z" fill="#6C6C6C"/>
<path d="M16.76 11.1035L14.5851 8.935C14.259 8.08815 13.6446 7.83969 13.0246 7.35932C12.6022 7.03218 11.2796 5.69393 10.9536 5.26602C10.9139 5.21425 10.8545 5.20045 10.877 5.11073C14.4005 4.22247 17.667 7.55257 16.76 11.1028V11.1035Z" fill="#6C6C6C"/>
</g>
<defs>
<clipPath id="clip0_230_3018">
<rect width="24" height="21" fill="white"/>
</clipPath>
</defs>
</svg>
