<svg width="225" height="225" version="1.1" xmlns="http://www.w3.org/2000/svg" desc="Created with imagetracer.js version 1.2.6" ><path fill="rgb(77,168,236)" stroke="rgb(77,168,236)" stroke-width="1" opacity="0.49019607843137253" d="M 22.5 37 L 43 37.5 L 22.5 38 L 22.5 37 Z " /><path fill="rgb(77,168,236)" stroke="rgb(77,168,236)" stroke-width="1" opacity="0.49019607843137253" d="M 17.5 38 L 20 38.5 Q 13.2 39.7 10 44.5 L 9 51.5 L 13.5 57 L 25 61.5 L 22.5 62 Q 13.6 59.9 9 53.5 L 8 46.5 L 13.5 40 L 17.5 38 Z " /><path fill="rgb(77,168,236)" stroke="rgb(77,168,236)" stroke-width="1" opacity="0.49019607843137253" d="M 51.5 38 L 75 38.5 L 51.5 39 L 51.5 38 Z " /><path fill="rgb(77,168,236)" stroke="rgb(77,168,236)" stroke-width="1" opacity="0.49019607843137253" d="M 109.5 40 L 123 40.5 L 109.5 41 L 109.5 40 Z " /><path fill="rgb(77,168,236)" stroke="rgb(77,168,236)" stroke-width="1" opacity="0.49019607843137253" d="M 127.5 41 L 145 41.5 L 127.5 42 L 127.5 41 Z " /><path fill="rgb(77,168,236)" stroke="rgb(77,168,236)" stroke-width="1" opacity="0.49019607843137253" d="M 26.5 62 L 47 67.5 L 44.5 68 L 26.5 63 L 26.5 62 Z " /><path fill="rgb(77,168,236)" stroke="rgb(77,168,236)" stroke-width="1" opacity="0.49019607843137253" d="M 51.5 69 L 57 70.5 L 54.5 71 L 51.5 70 L 51.5 69 Z " /><path fill="rgb(77,168,236)" stroke="rgb(77,168,236)" stroke-width="1" opacity="0.49019607843137253" d="M 58.5 71 L 67 73.5 L 64.5 74 L 58.5 72 L 58.5 71 Z " /><path fill="rgb(77,168,236)" stroke="rgb(77,168,236)" stroke-width="1" opacity="0.49019607843137253" d="M 68.5 74 L 77 76.5 L 74.5 77 L 68.5 75 L 68.5 74 Z " /><path fill="rgb(77,168,236)" stroke="rgb(77,168,236)" stroke-width="1" opacity="0.49019607843137253" d="M 78.5 77 L 90 80.5 L 87.5 81 L 78.5 78 L 78.5 77 Z " /><path fill="rgb(77,168,236)" stroke="rgb(77,168,236)" stroke-width="1" opacity="0.49019607843137253" d="M 91.5 81 L 105 85.5 L 103.5 86 L 91.5 82 L 91.5 81 Z " /><path fill="rgb(77,168,236)" stroke="rgb(77,168,236)" stroke-width="1" opacity="0.49019607843137253" d="M 183.5 81 L 184 101.5 L 183 101.5 L 183.5 81 Z " /><path fill="rgb(77,168,236)" stroke="rgb(77,168,236)" stroke-width="1" opacity="0.49019607843137253" d="M 184.5 104 L 185.5 115 L 188 113.5 L 184 116.5 L 184.5 104 Z " /><path fill="rgb(77,168,236)" stroke="rgb(77,168,236)" stroke-width="1" opacity="0.49019607843137253" d="M 139.5 122 L 144 132.5 L 150 154.5 L 149 154.5 L 139.5 122 Z " /><path fill="rgb(77,168,236)" stroke="rgb(77,168,236)" stroke-width="1" opacity="0.49019607843137253" d="M 9.5 137 L 22 137.5 L 9.5 138 L 9.5 137 Z " /><path fill="rgb(77,168,236)" stroke="rgb(77,168,236)" stroke-width="1" opacity="0.49019607843137253" d="M 6.5 138 L 8 138.5 L 3 142.5 L 2.5 146 L 2 142.5 L 6.5 138 Z " /><path fill="rgb(77,168,236)" stroke="rgb(77,168,236)" stroke-width="1" opacity="0.49019607843137253" d="M 26.5 138 L 35 138.5 L 26.5 139 L 26.5 138 Z " /><path fill="rgb(77,168,236)" stroke="rgb(77,168,236)" stroke-width="1" opacity="0.49019607843137253" d="M 37.5 139 L 47 139.5 L 37.5 140 L 37.5 139 Z " /><path fill="rgb(77,168,236)" stroke="rgb(77,168,236)" stroke-width="1" opacity="0.49019607843137253" d="M 48.5 140 L 53 140.5 L 48.5 141 L 48.5 140 Z " /><path fill="rgb(77,168,236)" stroke="rgb(77,168,236)" stroke-width="1" opacity="0.49019607843137253" d="M 2.5 148 Q 3.7 154.8 8.5 158 L 36 176.5 L 34.5 176 Q 16.6 166.9 3 153.5 L 2.5 148 Z " /><path fill="rgb(77,168,236)" stroke="rgb(77,168,236)" stroke-width="1" opacity="0.49019607843137253" d="M 185 150 L 187 150.5 L 185.5 154 L 185 150 Z " /><path fill="rgb(77,168,236)" stroke="rgb(77,168,236)" stroke-width="1" opacity="0.49019607843137253" d="M 150.5 156 L 165 205.5 L 172.5 215 L 179 216.5 L 174.5 217 L 168 212.5 L 161 196.5 L 160 189.5 L 150 158.5 L 150.5 156 Z " /><path fill="rgb(77,168,236)" stroke="rgb(77,168,236)" stroke-width="1" opacity="0.49019607843137253" d="M 186.5 156 L 187 180.5 L 186 180.5 L 186.5 156 Z " /><path fill="rgb(77,168,236)" stroke="rgb(77,168,236)" stroke-width="1" opacity="0.49019607843137253" d="M 84.5 172 L 86 178.5 L 86 188.5 L 87 189.5 L 87 200.5 L 86 200.5 L 86 189.5 L 85 188.5 L 84.5 172 Z " /><path fill="rgb(77,168,236)" stroke="rgb(77,168,236)" stroke-width="1" opacity="0.49019607843137253" d="M 49.5 190 Q 58.2 206.8 70.5 220 L 78 222.5 L 74.5 223 L 71.5 222 L 64 214.5 L 49 191.5 L 49.5 190 Z " /><path fill="rgb(77,168,236)" stroke="rgb(77,168,236)" stroke-width="1" opacity="0.49019607843137253" d="M 187.5 190 L 188 203.5 L 187 203.5 L 187.5 190 Z " /><path fill="rgb(77,168,236)" stroke="rgb(77,168,236)" stroke-width="1" opacity="0.49019607843137253" d="M 87.5 203 L 88 215.5 L 87 215.5 L 87.5 203 Z " /><path fill="rgb(77,168,236)" stroke="rgb(77,168,236)" stroke-width="1" opacity="0.49019607843137253" d="M 186.5 205 L 187 208.5 L 182.5 215 L 180.5 216 L 185 210.5 L 186.5 205 Z " /><path fill="rgb(77,168,236)" stroke="rgb(77,168,236)" stroke-width="1" opacity="0.49019607843137253" d="M 86.5 217 L 87 218.5 L 83 221.5 L 86.5 217 Z " /><path fill="rgb(77,168,236)" stroke="rgb(77,168,236)" stroke-width="1" opacity="0.49019607843137253" d="M 79.5 222 L 82 222.5 L 79.5 223 L 79.5 222 Z " /><path fill="rgb(84,171,237)" stroke="rgb(84,171,237)" stroke-width="1" opacity="0.996078431372549" d="M 20.5 38 L 41 38.5 L 21.5 39 L 13.5 42 L 11 44.5 L 10 51.5 L 13.5 56 L 25.5 61 L 50.5 67 L 104.5 84 L 118 71.5 L 103.5 85 Q 63.4 70.6 19.5 60 L 10 53.5 L 9 46.5 L 13.5 41 L 20.5 38 Z " /><path fill="rgb(84,171,237)" stroke="rgb(84,171,237)" stroke-width="1" opacity="0.996078431372549" d="M 44.5 38 L 49.5 39 L 51.5 39 L 64 39.5 L 42.5 40 L 42.5 39 L 44.5 38 Z " /><path fill="rgb(84,171,237)" stroke="rgb(84,171,237)" stroke-width="1" opacity="0.996078431372549" d="M 73.5 39 L 86 39.5 L 71.5 41 L 71.5 40 L 73.5 39 Z " /><path fill="rgb(84,171,237)" stroke="rgb(84,171,237)" stroke-width="1" opacity="0.996078431372549" d="M 100.5 40 L 118 41.5 L 108.5 42 Q 106.7 39.2 100.5 41 L 100.5 40 Z " /><path fill="rgb(84,171,237)" stroke="rgb(84,171,237)" stroke-width="1" opacity="0.996078431372549" d="M 119.5 41 L 121.5 42 L 123.5 42 L 141 42.5 L 121.5 43 L 119.5 41 Z " /><path fill="rgb(84,171,237)" stroke="rgb(84,171,237)" stroke-width="1" opacity="0.996078431372549" d="M 143.5 43 L 139.5 48 L 143.5 43 Z " /><path fill="rgb(84,171,237)" stroke="rgb(84,171,237)" stroke-width="1" opacity="0.996078431372549" d="M 134.5 53 L 121.5 67 L 134.5 53 Z " /><path fill="rgb(84,171,237)" stroke="rgb(84,171,237)" stroke-width="1" opacity="0.996078431372549" d="M 182.5 80 L 182 81.5 L 181.5 85 L 180.5 83 L 177 85.5 L 182.5 80 Z " /><path fill="rgb(84,171,237)" stroke="rgb(84,171,237)" stroke-width="1" opacity="0.996078431372549" d="M 182.5 87 L 183 106.5 L 184 109.5 L 182 108.5 L 182.5 87 Z " /><path fill="rgb(84,171,237)" stroke="rgb(84,171,237)" stroke-width="1" opacity="0.996078431372549" d="M 171.5 90 L 159.5 103 L 171.5 90 Z " /><path fill="rgb(84,171,237)" stroke="rgb(84,171,237)" stroke-width="1" opacity="0.996078431372549" d="M 154.5 106 L 141 120.5 L 166 205.5 L 172.5 214 L 179.5 215 Q 184.9 211.9 186 204.5 L 186.5 190 L 187 204.5 Q 185.6 212.6 179.5 216 Q 169.7 216.3 167 209.5 L 162 196.5 L 161 189.5 L 140 120.5 L 154.5 106 Z " /><path fill="rgb(84,171,237)" stroke="rgb(84,171,237)" stroke-width="1" opacity="0.996078431372549" d="M 183.5 112 L 184 115.5 L 183 115.5 L 183.5 112 Z " /><path fill="rgb(84,171,237)" stroke="rgb(84,171,237)" stroke-width="1" opacity="0.996078431372549" d="M 184.5 120 L 185 130.5 L 184 130.5 L 184.5 120 Z " /><path fill="rgb(84,171,237)" stroke="rgb(84,171,237)" stroke-width="1" opacity="0.996078431372549" d="M 8.5 138 L 25.5 138 L 26.5 139 L 36.5 139 L 44 140.5 L 35.5 141 L 34.5 140 L 23.5 140 L 22.5 139 L 9.5 139 L 5 141.5 L 4 150.5 L 8.5 157 L 30.5 172 L 36 174 L 35.5 176 L 12.5 161 L 5 154.5 L 2 146.5 L 3 142.5 L 6.5 139 L 8.5 138 Z " /><path fill="rgb(84,171,237)" stroke="rgb(84,171,237)" stroke-width="1" opacity="0.996078431372549" d="M 45.5 140 L 53 141.5 L 50.5 145 L 51 143.5 Q 51.9 140.1 46.5 142 L 45.5 140 Z " /><path fill="rgb(84,171,237)" stroke="rgb(84,171,237)" stroke-width="1" opacity="0.996078431372549" d="M 185.5 145 L 186 149.5 L 185 153.5 L 185 155.5 L 186 161 L 184 160.5 L 184 150.5 L 185.5 145 Z " /><path fill="rgb(84,171,237)" stroke="rgb(84,171,237)" stroke-width="1" opacity="0.996078431372549" d="M 49.5 146 L 48.5 148 L 49.5 146 Z " /><path fill="rgb(84,171,237)" stroke="rgb(84,171,237)" stroke-width="1" opacity="0.996078431372549" d="M 46.5 151 L 46 152.5 L 44.5 155 L 45 153.5 L 46.5 151 Z " /><path fill="rgb(84,171,237)" stroke="rgb(84,171,237)" stroke-width="1" opacity="0.996078431372549" d="M 185.5 162 L 186 166.5 L 185 166.5 L 185.5 162 Z " /><path fill="rgb(84,171,237)" stroke="rgb(84,171,237)" stroke-width="1" opacity="0.996078431372549" d="M 38.5 166 L 39 167.5 L 37.5 170 L 37 168.5 L 38.5 166 Z " /><path fill="rgb(84,171,237)" stroke="rgb(84,171,237)" stroke-width="1" opacity="0.996078431372549" d="M 185.5 168 L 186 186.5 L 187 187.5 L 185 188.5 L 185.5 168 Z " /><path fill="rgb(84,171,237)" stroke="rgb(84,171,237)" stroke-width="1" opacity="0.996078431372549" d="M 83.5 172 L 85 179.5 L 85 188.5 L 86 189.5 L 86 200.5 L 87 201.5 L 87 216.5 L 82.5 222 L 78.5 223 Q 70.7 221.8 67 216.5 L 49 189.5 L 51 189 L 53 194.5 L 70.5 219 Q 73.8 222.2 81.5 221 L 85 218.5 L 86 216.5 L 86 202.5 L 85 201.5 L 85 190.5 L 84 189.5 L 84 179.5 L 83 174 L 80.5 175 L 81.5 173 L 83.5 172 Z " /><path fill="rgb(84,171,237)" stroke="rgb(84,171,237)" stroke-width="1" opacity="0.996078431372549" d="M 78.5 175 L 77.5 177 L 78.5 175 Z " /><path fill="rgb(84,171,237)" stroke="rgb(84,171,237)" stroke-width="1" opacity="0.996078431372549" d="M 73.5 178 L 72.5 180 L 70.5 181 L 71.5 179 L 73.5 178 Z " /><path fill="rgb(85,172,238)" stroke="rgb(85,172,238)" stroke-width="1" opacity="1" d="M 41.5 38 L 44 38.5 L 42 39.5 L 63.5 40 L 68.5 39 L 70.5 39 L 73 39.5 L 71 40.5 L 74.5 41 L 75.5 40 L 99.5 40 L 108.5 42 L 117.5 42 L 119.5 42 L 121.5 41 L 121.5 43 L 140.5 43 L 145.5 42 L 137.5 51 L 134.5 53 L 131 56.5 L 132 57.5 L 118.5 71 L 114 74.5 L 115 75.5 L 105.5 85 L 80.5 76 L 36.5 63 L 25.5 61 L 12 54.5 Q 9 52.5 10 46.5 L 13.5 42 L 21.5 39 L 40.5 39 L 41.5 38 Z " /><path fill="rgb(85,172,238)" stroke="rgb(85,172,238)" stroke-width="1" opacity="1" d="M 45.5 38 L 50 38.5 L 45.5 39 L 45.5 38 Z " /><path fill="rgb(85,172,238)" stroke="rgb(85,172,238)" stroke-width="1" opacity="1" d="M 123.5 41 L 127 41.5 L 123.5 42 L 123.5 41 Z " /><path fill="rgb(85,172,238)" stroke="rgb(85,172,238)" stroke-width="1" opacity="1" d="M 181.5 80 Q 184.3 81.3 183 86.5 L 182 87.5 L 182 108.5 L 184 111.5 L 183 115.5 L 184 116.5 L 184 130.5 L 185 131.5 L 185 149.5 L 184 150.5 L 184 161 L 186 161.5 L 185 166.5 L 185 168.5 L 185.5 189 L 187 188.5 L 186 190.5 L 186 204.5 Q 184.9 211.9 179.5 215 Q 170.9 216.1 169 210.5 L 164 199.5 L 152 155.5 L 140 119.5 L 150.5 109 L 151.5 110 L 155 106.5 L 169.5 91 Q 170.8 93.3 172 90.5 L 181.5 80 Z M 182 81 L 180 83 L 181 85 L 182 85 L 182 81 Z " /><path fill="rgb(85,172,238)" stroke="rgb(85,172,238)" stroke-width="1" opacity="1" d="M 183.5 102 L 184 106.5 L 183 106.5 L 183.5 102 Z " /><path fill="rgb(85,172,238)" stroke="rgb(85,172,238)" stroke-width="1" opacity="1" d="M 9.5 139 L 22.5 139 L 23.5 140 L 43.5 141 Q 45 138.5 46.5 142 Q 51.9 140.1 51 143.5 Q 53.3 144.8 50.5 146 L 49 146.5 Q 51.3 147.8 48.5 149 L 47 149.5 L 47.5 151 L 46 151.5 L 46.5 153 L 45 152.5 L 46 154.5 L 43.5 158 L 42 158.5 L 42.5 160 L 41 160.5 L 41.5 162 L 40 162.5 L 40.5 164 L 39 164.5 L 40 166.5 L 38 166.5 L 39 168.5 L 37 168.5 L 38 171.5 L 36 171.5 L 37 174.5 L 35.5 174 L 30.5 172 L 6 154.5 Q 2.8 151.2 4 143.5 L 6.5 140 L 9.5 139 Z " /><path fill="rgb(85,172,238)" stroke="rgb(85,172,238)" stroke-width="1" opacity="1" d="M 185.5 155 L 186 157.5 L 185 157.5 L 185.5 155 Z " /><path fill="rgb(85,172,238)" stroke="rgb(85,172,238)" stroke-width="1" opacity="1" d="M 83.5 171 L 82.5 173 L 83.5 171 Z " /><path fill="rgb(85,172,238)" stroke="rgb(85,172,238)" stroke-width="1" opacity="1" d="M 80.5 173 L 83 174 L 84 179.5 L 84 189.5 L 85 190.5 L 85 201.5 L 86 202.5 L 86 216.5 L 83.5 220 L 74.5 221 L 68 216.5 L 50 188.5 L 51.5 188 L 53.5 189 L 53.5 187 L 56.5 188 L 56.5 186 L 61.5 184 L 63 184.5 L 63.5 183 L 65 183.5 L 65.5 182 L 67 182.5 L 68.5 180 L 70.5 179 L 72.5 180 L 72.5 178 L 74 178.5 L 75.5 176 L 77.5 175 L 79 175.5 L 80.5 173 Z " /><path fill="rgb(85,172,238)" stroke="rgb(85,172,238)" stroke-width="1" opacity="1" d="M 186.5 181 L 187 186.5 L 186 186.5 L 186.5 181 Z " /><path fill="rgb(203,214,222)" stroke="rgb(203,214,222)" stroke-width="1" opacity="0.49411764705882355" d="M 204.5 3 Q 215.6 1.4 220 6.5 Q 223.4 11.6 222 21.5 L 217 40.5 L 212 50.5 L 195.5 68 Q 193.3 67.3 194 69.5 L 184 78.5 L 183.5 81 L 183 78.5 L 207 55.5 Q 215.2 45.7 219 31.5 L 221 21.5 L 221 11.5 L 219 6 Q 214.4 2.9 204.5 4 L 204.5 3 Z " /><path fill="rgb(203,214,222)" stroke="rgb(203,214,222)" stroke-width="1" opacity="0.49411764705882355" d="M 197.5 4 L 203 4.5 Q 175.4 7.9 162 25.5 L 146.5 42 L 145 41.5 L 150 37.5 L 151.5 35 Q 153.8 35.8 153 33.5 L 174.5 13 L 186.5 7 L 197.5 4 Z " /><path fill="rgb(203,214,222)" stroke="rgb(203,214,222)" stroke-width="1" opacity="0.49411764705882355" d="M 103.5 86 L 105 86.5 L 53.5 141 L 55 138.5 L 103.5 86 Z " /><path fill="rgb(203,214,222)" stroke="rgb(203,214,222)" stroke-width="1" opacity="0.49411764705882355" d="M 138.5 120 Q 141.1 119.3 140 122 L 136.5 123 L 119 139.5 Q 119.8 141.8 117.5 141 L 84.5 172 L 84 170 L 91.5 165 L 138.5 120 Z " /><path fill="rgb(203,214,222)" stroke="rgb(203,214,222)" stroke-width="1" opacity="0.49411764705882355" d="M 35.5 177 L 36 184.5 L 35 184.5 L 35.5 177 Z " /><path fill="rgb(203,214,222)" stroke="rgb(203,214,222)" stroke-width="1" opacity="0.49411764705882355" d="M 42.5 189 L 49 189.5 L 42.5 190 L 42.5 189 Z " /><path fill="rgb(0,0,0)" stroke="rgb(0,0,0)" stroke-width="1" opacity="0" d="M 0 0 L 225 0 L 225 225 L 0 225 L 0 0 Z M 205 3 L 187 7 L 175 13 L 153 34 Q 154 36 152 35 L 147 41 L 124 41 L 123 40 L 110 40 L 114 35 L 113 30 L 100 17 L 95 18 L 75 38 L 44 38 L 43 37 L 23 37 L 14 40 L 8 47 L 9 54 Q 13 59 20 61 L 48 68 L 103 85 L 99 92 L 54 140 L 36 139 L 35 138 L 23 138 L 22 137 Q 6 134 2 143 L 3 154 Q 17 167 35 176 L 35 185 L 31 191 L 31 194 L 35 194 L 40 190 L 49 190 L 64 215 L 72 222 L 75 223 L 84 222 L 88 216 L 88 204 L 87 203 L 87 190 L 86 189 L 85 172 L 118 141 Q 120 142 119 140 L 139 122 L 140 124 L 148 153 L 150 156 L 161 197 L 168 213 L 175 217 Q 180 218 183 215 L 187 209 L 188 204 L 187 157 L 186 156 L 186 152 L 206 132 L 208 128 L 207 124 L 194 111 Q 188 111 186 115 L 185 105 L 184 104 L 184 79 L 194 70 Q 193 67 196 68 L 212 51 L 217 41 L 222 22 Q 223 12 220 7 Q 216 1 205 3 Z " /><path fill="rgb(203,213,220)" stroke="rgb(203,213,220)" stroke-width="1" opacity="0.996078431372549" d="M 203.5 4 L 214 4.5 L 203.5 5 L 203.5 4 Z " /><path fill="rgb(203,213,220)" stroke="rgb(203,213,220)" stroke-width="1" opacity="0.996078431372549" d="M 220.5 11 L 221 21.5 L 220 21.5 L 220.5 11 Z " /><path fill="rgb(203,213,220)" stroke="rgb(203,213,220)" stroke-width="1" opacity="0.996078431372549" d="M 174.5 14 L 172.5 17 L 174.5 14 Z " /><path fill="rgb(203,213,220)" stroke="rgb(203,213,220)" stroke-width="1" opacity="0.996078431372549" d="M 170.5 17 L 162.5 26 L 170.5 17 Z " /><path fill="rgb(203,213,220)" stroke="rgb(203,213,220)" stroke-width="1" opacity="0.996078431372549" d="M 197.5 21 L 198.5 23 L 197.5 21 Z " /><path fill="rgb(203,213,220)" stroke="rgb(203,213,220)" stroke-width="1" opacity="0.996078431372549" d="M 219.5 25 L 220 27.5 L 219 27.5 L 219.5 25 Z " /><path fill="rgb(203,213,220)" stroke="rgb(203,213,220)" stroke-width="1" opacity="0.996078431372549" d="M 202.5 26 L 203.5 28 L 202.5 26 Z " /><path fill="rgb(203,213,220)" stroke="rgb(203,213,220)" stroke-width="1" opacity="0.996078431372549" d="M 193.5 29 L 195.5 32 L 193.5 29 Z " /><path fill="rgb(203,213,220)" stroke="rgb(203,213,220)" stroke-width="1" opacity="0.996078431372549" d="M 154.5 34 L 153.5 36 L 154.5 34 Z " /><path fill="rgb(203,213,220)" stroke="rgb(203,213,220)" stroke-width="1" opacity="0.996078431372549" d="M 151.5 37 L 147.5 42 L 151.5 37 Z " /><path fill="rgb(203,213,220)" stroke="rgb(203,213,220)" stroke-width="1" opacity="0.996078431372549" d="M 199.5 39 L 200 41.5 L 199 41.5 L 199.5 39 Z " /><path fill="rgb(203,213,220)" stroke="rgb(203,213,220)" stroke-width="1" opacity="0.996078431372549" d="M 141.5 47 L 132.5 57 L 141.5 47 Z " /><path fill="rgb(203,213,220)" stroke="rgb(203,213,220)" stroke-width="1" opacity="0.996078431372549" d="M 209.5 51 L 208.5 53 L 209.5 51 Z " /><path fill="rgb(203,213,220)" stroke="rgb(203,213,220)" stroke-width="1" opacity="0.996078431372549" d="M 206.5 55 L 200.5 62 L 206.5 55 Z " /><path fill="rgb(203,213,220)" stroke="rgb(203,213,220)" stroke-width="1" opacity="0.996078431372549" d="M 124.5 65 L 115.5 75 L 124.5 65 Z " /><path fill="rgb(203,213,220)" stroke="rgb(203,213,220)" stroke-width="1" opacity="0.996078431372549" d="M 193.5 67 L 183.5 78 L 193.5 67 Z " /><path fill="rgb(203,213,220)" stroke="rgb(203,213,220)" stroke-width="1" opacity="0.996078431372549" d="M 178.5 82 L 170.5 91 L 178.5 82 Z " /><path fill="rgb(203,213,220)" stroke="rgb(203,213,220)" stroke-width="1" opacity="0.996078431372549" d="M 107.5 83 L 105.5 86 L 107.5 83 Z " /><path fill="rgb(203,213,220)" stroke="rgb(203,213,220)" stroke-width="1" opacity="0.996078431372549" d="M 99.5 92 L 89.5 103 L 99.5 92 Z " /><path fill="rgb(203,213,220)" stroke="rgb(203,213,220)" stroke-width="1" opacity="0.996078431372549" d="M 160.5 99 L 151.5 109 L 160.5 99 Z " /><path fill="rgb(203,213,220)" stroke="rgb(203,213,220)" stroke-width="1" opacity="0.996078431372549" d="M 82.5 110 L 78.5 115 L 82.5 110 Z " /><path fill="rgb(203,213,220)" stroke="rgb(203,213,220)" stroke-width="1" opacity="0.996078431372549" d="M 75.5 117 L 73.5 120 L 75.5 117 Z " /><path fill="rgb(203,213,220)" stroke="rgb(203,213,220)" stroke-width="1" opacity="0.996078431372549" d="M 141.5 117 L 139.5 120 L 141.5 117 Z " /><path fill="rgb(203,213,220)" stroke="rgb(203,213,220)" stroke-width="1" opacity="0.996078431372549" d="M 136.5 121 L 125.5 133 L 136.5 121 Z " /><path fill="rgb(203,213,220)" stroke="rgb(203,213,220)" stroke-width="1" opacity="0.996078431372549" d="M 66.5 127 L 58.5 136 L 66.5 127 Z " /><path fill="rgb(203,213,220)" stroke="rgb(203,213,220)" stroke-width="1" opacity="0.996078431372549" d="M 85.5 137 Q 89.3 135.8 88 139.5 L 87 139.5 Q 87.8 137.3 85.5 138 L 85.5 137 Z " /><path fill="rgb(203,213,220)" stroke="rgb(203,213,220)" stroke-width="1" opacity="0.996078431372549" d="M 119.5 137 L 107.5 150 L 119.5 137 Z " /><path fill="rgb(203,213,220)" stroke="rgb(203,213,220)" stroke-width="1" opacity="0.996078431372549" d="M 56.5 138 L 53.5 142 L 56.5 138 Z " /><path fill="rgb(203,213,220)" stroke="rgb(203,213,220)" stroke-width="1" opacity="0.996078431372549" d="M 80.5 140 L 79.5 142 L 80.5 140 Z " /><path fill="rgb(203,213,220)" stroke="rgb(203,213,220)" stroke-width="1" opacity="0.996078431372549" d="M 75.5 144 L 74.5 146 L 75.5 144 Z " /><path fill="rgb(203,213,220)" stroke="rgb(203,213,220)" stroke-width="1" opacity="0.996078431372549" d="M 84.5 144 L 83.5 146 L 84.5 144 Z " /><path fill="rgb(203,213,220)" stroke="rgb(203,213,220)" stroke-width="1" opacity="0.996078431372549" d="M 49.5 148 L 48.5 150 L 49.5 148 Z " /><path fill="rgb(203,213,220)" stroke="rgb(203,213,220)" stroke-width="1" opacity="0.996078431372549" d="M 69.5 149 L 62.5 157 L 69.5 149 Z " /><path fill="rgb(203,213,220)" stroke="rgb(203,213,220)" stroke-width="1" opacity="0.996078431372549" d="M 80.5 149 L 79.5 151 L 80.5 149 Z " /><path fill="rgb(203,213,220)" stroke="rgb(203,213,220)" stroke-width="1" opacity="0.996078431372549" d="M 100.5 155 L 91.5 165 L 100.5 155 Z " /><path fill="rgb(203,213,220)" stroke="rgb(203,213,220)" stroke-width="1" opacity="0.996078431372549" d="M 74.5 156 L 68.5 163 L 74.5 156 Z " /><path fill="rgb(203,213,220)" stroke="rgb(203,213,220)" stroke-width="1" opacity="0.996078431372549" d="M 87.5 167 L 85.5 170 L 87.5 167 Z " /><path fill="rgb(203,213,220)" stroke="rgb(203,213,220)" stroke-width="1" opacity="0.996078431372549" d="M 49.5 169 L 42.5 177 L 49.5 169 Z " /><path fill="rgb(203,213,220)" stroke="rgb(203,213,220)" stroke-width="1" opacity="0.996078431372549" d="M 56.5 174 L 49.5 182 L 56.5 174 Z " /><path fill="rgb(203,213,220)" stroke="rgb(203,213,220)" stroke-width="1" opacity="0.996078431372549" d="M 36.5 175 L 37 178.5 L 36 178.5 L 36.5 175 Z " /><path fill="rgb(203,213,220)" stroke="rgb(203,213,220)" stroke-width="1" opacity="0.996078431372549" d="M 39.5 180 L 36.5 184 L 36 182 L 39.5 180 Z " /><path fill="rgb(203,213,220)" stroke="rgb(203,213,220)" stroke-width="1" opacity="0.996078431372549" d="M 44.5 185 L 43.5 189 L 41 188.5 L 44.5 185 Z " /><path fill="rgb(204,214,221)" stroke="rgb(204,214,221)" stroke-width="1" opacity="1" d="M 197.5 5 L 199.5 6 L 200.5 5 L 215.5 5 L 219 7.5 L 220 9.5 L 220 24.5 Q 214.8 53.3 194.5 67 L 183 77.5 L 179.5 82 L 82.5 172 L 61.5 184 L 47.5 189 L 45.5 188 Q 44.3 190.3 43 187.5 L 75 156.5 L 85 144.5 L 88 137 L 80.5 140 L 69.5 149 L 42 176.5 L 37.5 182 Q 34.9 182.8 36 179.5 L 38 170.5 L 45 155.5 Q 54.4 137.9 68.5 125 Q 70.8 125.8 70 123.5 L 72 120 L 76 117.5 L 77.5 115 L 83 110.5 L 88 103 L 89.5 103 L 100 92.5 L 102 89.5 L 146.5 42 L 152 37.5 Q 151.3 35.3 153.5 36 L 171.5 17 L 183.5 10 L 197.5 5 Z M 188 18 L 183 19 Q 180 20 181 25 L 192 28 L 197 34 L 200 43 Q 199 46 205 44 L 207 39 L 206 32 L 204 28 L 198 21 L 188 18 Z " /><path fill="rgb(102,117,128)" stroke="rgb(102,117,128)" stroke-width="1" opacity="0.9450980392156862" d="M 96.5 17 L 101.5 18 L 113 29.5 L 114 34.5 L 109.5 40 L 86.5 40 L 85.5 39 L 75 39 L 75 37.5 L 94.5 18 L 96.5 17 Z " /><path fill="rgb(102,117,128)" stroke="rgb(102,117,128)" stroke-width="1" opacity="0.9450980392156862" d="M 183.5 19 Q 197 18 202 25.5 Q 207.3 30.2 206 41.5 L 205 44 L 200 44 L 200 39.5 L 193.5 29 Q 189.2 24.2 181 25 L 181 20 L 182.5 20 L 183.5 19 Z " /><path fill="rgb(102,117,128)" stroke="rgb(102,117,128)" stroke-width="1" opacity="0.9450980392156862" d="M 190.5 111 L 195.5 112 L 207 123.5 L 208 127.5 L 206 131.5 L 187.5 150 Q 184.1 150.9 186 145.5 L 185 144.5 L 185 120.5 L 184 117.5 L 188 112 L 190.5 111 Z " /><path fill="rgb(102,117,128)" stroke="rgb(102,117,128)" stroke-width="1" opacity="0.9450980392156862" d="M 84.5 138 Q 88.3 136.8 87 140.5 L 79 151.5 L 57.5 174 L 37.5 192 Q 35.5 194.8 31 194 L 31 190 L 32.5 190 L 33.5 187 Q 35.8 187.8 35 185.5 L 61.5 157 L 84.5 138 Z " /></svg>